<?xml version="1.0" encoding="UTF-8" standalone="no"?>
<svg width="196px" height="81px" viewBox="0 0 196 81" version="1.1" xmlns="http://www.w3.org/2000/svg" xmlns:xlink="http://www.w3.org/1999/xlink" xmlns:sketch="http://www.bohemiancoding.com/sketch/ns">
    <!-- Generator: Sketch 3.0.4 (8054) - http://www.bohemiancoding.com/sketch -->
    <title>Slice 2</title>
    <desc>Created with Sketch.</desc>
    <defs>
        <path id="path-1" d="M0,0.013 L195.725,0.013 L195.725,81 L0,81 L0,0.013 Z"></path>
    </defs>
    <g id="Page-1" stroke="none" stroke-width="1" fill="none" fill-rule="evenodd" sketch:type="MSPage">
        <g id="Imported-Layers" sketch:type="MSLayerGroup">
            <path d="M37.0352,40.6777 L37.0352,40.5017 C37.0352,31.5727 30.9942,25.7057 23.8142,25.7057 C16.6362,25.7057 10.3322,31.6577 10.3322,40.5017 L10.3322,40.6777 C10.3322,49.6067 16.6362,55.4747 23.8142,55.4747 C31.0822,55.4747 37.0352,49.7817 37.0352,40.6777 L37.0352,40.6777 Z M0.0002,17.4757 L10.5952,17.4757 L10.5952,25.1797 C14.0092,20.3647 18.8242,16.5107 26.2652,16.5107 C37.2092,16.5107 47.8052,25.1797 47.8052,40.5017 L47.8052,40.6777 C47.8052,55.9997 37.2982,64.6657 26.2652,64.6657 C18.6482,64.6657 13.8342,60.8147 10.5952,56.5247 L10.5952,80.9997 L0.0002,80.9997 L0.0002,17.4757 Z" id="Fill-1" fill="#FEFEFE" sketch:type="MSShapeGroup"></path>
            <path d="M46.248,46.8926 L46.248,17.4756 L56.844,17.4756 L56.844,43.7406 C56.844,50.9196 60.433,55.0376 66.736,55.0376 C72.865,55.0376 77.156,50.7456 77.156,43.5656 L77.156,17.4756 L87.749,17.4756 L87.749,63.7036 L77.156,63.7036 L77.156,56.5246 C74.179,60.9026 69.889,64.6656 62.709,64.6656 C52.291,64.6656 46.248,57.6626 46.248,46.8926" id="Fill-3" fill="#FEFEFE" sketch:type="MSShapeGroup"></path>
            <path d="M140.2842,36.3867 C134.8542,34.6367 129.8652,33.2347 129.8652,29.9077 L129.8652,29.7307 C129.8652,27.0197 132.2292,25.0907 136.3442,25.0907 C140.1962,25.0907 144.9252,26.7557 149.3892,29.4687 L153.5932,21.9397 C148.6892,18.6987 142.3852,16.6877 136.6072,16.6877 C127.4122,16.6877 120.1462,22.0277 120.1462,30.7827 L120.1462,30.9587 C120.1462,39.8027 127.7632,42.6047 134.5942,44.5277 C140.0212,46.1917 144.9252,47.4177 144.9252,51.0077 L144.9252,51.1837 C144.9252,54.2487 142.2972,56.1737 137.7452,56.1737 C136.5462,56.1737 135.3012,56.0477 134.0302,55.8017 L134.0302,64.3447 C135.1932,64.4837 136.3492,64.5797 137.4812,64.5797 C147.1142,64.5797 154.6422,59.7647 154.6422,50.0427 L154.6422,49.8697 C154.6422,41.5537 147.0252,38.4887 140.2842,36.3867" id="Fill-5" fill="#FEFEFE" sketch:type="MSShapeGroup"></path>
            <path d="M185.2197,37.3496 C184.5207,30.5206 180.4917,25.1796 173.4887,25.1796 C167.0087,25.1796 162.4547,30.1726 161.4917,37.3496 L185.2197,37.3496 Z M150.9867,40.7636 L150.9867,40.5876 C150.9867,27.3706 160.3547,16.5106 173.5737,16.5106 C188.2837,16.5106 195.7247,28.0706 195.7247,41.3766 C195.7247,42.3396 195.6377,43.3046 195.5517,44.3536 L161.5797,44.3536 C162.7177,51.8846 168.0597,56.0856 174.8887,56.0856 C180.0557,56.0856 183.7307,54.1606 187.4087,50.5706 L193.6237,56.0856 C189.2467,61.3396 183.2067,64.7546 174.7117,64.7546 C161.3177,64.7546 150.9867,55.0376 150.9867,40.7636 L150.9867,40.7636 Z" id="Fill-7" fill="#FEFEFE" sketch:type="MSShapeGroup"></path>
            <mask id="mask-2" sketch:name="Clip 10" fill="white">
                <use xlink:href="#path-1"></use>
            </mask>
            <g id="Clip-10"></g>
            <path d="M91.587,63.763 L102.088,63.763 L102.088,0.013 L91.587,0.013 L91.587,63.763 Z" id="Fill-9" fill="#FEFEFE" sketch:type="MSShapeGroup" mask="url(#mask-2)"></path>
            <path d="M105.629,63.763 L116.63,63.763 L116.63,40.388 L105.629,40.388 L105.629,63.763 Z" id="Fill-11" fill="#FEFEFE" sketch:type="MSShapeGroup" mask="url(#mask-2)"></path>
            <path d="M120.171,63.763 L130.673,63.763 L130.673,49.119 L120.171,49.119 L120.171,63.763 Z" id="Fill-12" fill="#FEFEFE" sketch:type="MSShapeGroup" mask="url(#mask-2)"></path>
        </g>
    </g>
</svg>